<?xml version="1.0" encoding="UTF-8"?>
<svg id="Layer_2" data-name="Layer 2"
  xmlns="http://www.w3.org/2000/svg" viewBox="0 0 707.7 457.7">
  <defs>
    <style>
      .cls-1 {
        stroke-width: .69px;
      }

      .cls-1, .cls-2, .cls-3 {
        fill: none;
        stroke: #2E4D6120;
        stroke-miterlimit: 10;
      }

      .cls-2 {
        stroke-dasharray: 0 0 2 2;
      }

      .cls-3 {
        stroke-width: .7px;
      }
    </style>
  </defs>
  <g id="OBJECTS">
    <g>
      <line class="cls-1" x1="17.59" y1=".35" x2="17.59" y2="457.35"/>
      <line class="cls-2" x1="34.84" y1=".35" x2="34.84" y2="457.35"/>
      <line class="cls-1" x1="52.08" y1=".35" x2="52.08" y2="457.35"/>
      <line class="cls-2" x1="69.33" y1=".35" x2="69.33" y2="457.35"/>
      <line class="cls-1" x1="86.57" y1=".35" x2="86.57" y2="457.35"/>
      <line class="cls-2" x1="103.81" y1=".35" x2="103.81" y2="457.35"/>
      <line class="cls-1" x1="121.06" y1=".35" x2="121.06" y2="457.35"/>
      <line class="cls-2" x1="138.3" y1=".35" x2="138.3" y2="457.35"/>
      <line class="cls-1" x1="155.54" y1=".35" x2="155.54" y2="457.35"/>
      <line class="cls-2" x1="172.79" y1=".35" x2="172.79" y2="457.35"/>
      <line class="cls-1" x1="190.03" y1=".35" x2="190.03" y2="457.35"/>
      <line class="cls-2" x1="207.28" y1=".35" x2="207.28" y2="457.35"/>
      <line class="cls-1" x1="224.52" y1=".35" x2="224.52" y2="457.35"/>
      <line class="cls-2" x1="241.76" y1=".35" x2="241.76" y2="457.35"/>
      <line class="cls-1" x1="259.01" y1=".35" x2="259.01" y2="457.35"/>
      <line class="cls-2" x1="276.25" y1=".35" x2="276.25" y2="457.35"/>
      <line class="cls-1" x1="293.5" y1=".35" x2="293.5" y2="457.35"/>
      <line class="cls-2" x1="310.74" y1=".35" x2="310.74" y2="457.35"/>
      <line class="cls-1" x1="327.98" y1=".35" x2="327.98" y2="457.35"/>
      <line class="cls-2" x1="345.23" y1=".35" x2="345.23" y2="457.35"/>
      <line class="cls-1" x1="362.47" y1=".35" x2="362.47" y2="457.35"/>
      <line class="cls-2" x1="379.72" y1=".35" x2="379.72" y2="457.35"/>
      <line class="cls-1" x1="396.96" y1=".35" x2="396.96" y2="457.35"/>
      <line class="cls-2" x1="414.2" y1=".35" x2="414.2" y2="457.35"/>
      <line class="cls-1" x1="431.45" y1=".35" x2="431.45" y2="457.35"/>
      <line class="cls-2" x1="448.69" y1=".35" x2="448.69" y2="457.35"/>
      <line class="cls-1" x1="465.94" y1=".35" x2="465.94" y2="457.35"/>
      <line class="cls-2" x1="483.18" y1=".35" x2="483.18" y2="457.35"/>
      <line class="cls-1" x1="500.42" y1=".35" x2="500.42" y2="457.35"/>
      <line class="cls-2" x1="517.67" y1=".35" x2="517.67" y2="457.35"/>
      <line class="cls-1" x1="534.91" y1=".35" x2="534.91" y2="457.35"/>
      <line class="cls-2" x1="552.15" y1=".35" x2="552.15" y2="457.35"/>
      <line class="cls-1" x1="569.4" y1=".35" x2="569.4" y2="457.35"/>
      <line class="cls-2" x1="586.64" y1=".35" x2="586.64" y2="457.35"/>
      <line class="cls-1" x1="603.89" y1=".35" x2="603.89" y2="457.35"/>
      <line class="cls-2" x1="621.13" y1=".35" x2="621.13" y2="457.35"/>
      <line class="cls-1" x1="638.37" y1=".35" x2="638.37" y2="457.35"/>
      <line class="cls-2" x1="655.62" y1=".35" x2="655.62" y2="457.35"/>
      <line class="cls-1" x1="672.86" y1=".35" x2="672.86" y2="457.35"/>
      <line class="cls-2" x1="690.11" y1=".35" x2="690.11" y2="457.35"/>
      <line class="cls-3" x1="707.35" y1="440.42" x2=".35" y2="440.42"/>
      <line class="cls-2" x1="707.35" y1="423.5" x2=".35" y2="423.5"/>
      <line class="cls-3" x1="707.35" y1="406.57" x2=".35" y2="406.57"/>
      <line class="cls-2" x1="707.35" y1="389.65" x2=".35" y2="389.65"/>
      <line class="cls-3" x1="707.35" y1="372.72" x2=".35" y2="372.72"/>
      <line class="cls-2" x1="707.35" y1="355.79" x2=".35" y2="355.79"/>
      <line class="cls-3" x1="707.35" y1="338.87" x2=".35" y2="338.87"/>
      <line class="cls-2" x1="707.35" y1="321.94" x2=".35" y2="321.94"/>
      <line class="cls-3" x1="707.35" y1="305.02" x2=".35" y2="305.02"/>
      <line class="cls-2" x1="707.35" y1="288.09" x2=".35" y2="288.09"/>
      <line class="cls-3" x1="707.35" y1="271.16" x2=".35" y2="271.16"/>
      <line class="cls-2" x1="707.35" y1="254.24" x2=".35" y2="254.24"/>
      <line class="cls-3" x1="707.35" y1="237.31" x2=".35" y2="237.31"/>
      <line class="cls-2" x1="707.35" y1="220.39" x2=".35" y2="220.39"/>
      <line class="cls-3" x1="707.35" y1="203.46" x2=".35" y2="203.46"/>
      <line class="cls-2" x1="707.35" y1="186.53" x2=".35" y2="186.53"/>
      <line class="cls-3" x1="707.35" y1="169.61" x2=".35" y2="169.61"/>
      <line class="cls-2" x1="707.35" y1="152.68" x2=".35" y2="152.68"/>
      <line class="cls-3" x1="707.35" y1="135.76" x2=".35" y2="135.76"/>
      <line class="cls-2" x1="707.35" y1="118.83" x2=".35" y2="118.83"/>
      <line class="cls-3" x1="707.35" y1="101.91" x2=".35" y2="101.91"/>
      <line class="cls-2" x1="707.35" y1="84.98" x2=".35" y2="84.98"/>
      <line class="cls-3" x1="707.35" y1="68.05" x2=".35" y2="68.05"/>
      <line class="cls-2" x1="707.35" y1="51.13" x2=".35" y2="51.13"/>
      <line class="cls-3" x1="707.35" y1="34.2" x2=".35" y2="34.2"/>
      <line class="cls-2" x1="707.35" y1="17.28" x2=".35" y2="17.28"/>
      <rect class="cls-3" x=".35" y=".35" width="707" height="457"/>
    </g>
  </g>
</svg>