<svg width="1330" height="961" viewBox="0 0 1330 961" fill="none" xmlns="http://www.w3.org/2000/svg">
<mask id="mask0_1696_1403" style="mask-type:alpha" maskUnits="userSpaceOnUse" x="0" y="0" width="1330" height="961">
<rect width="1330" height="961" fill="url(#paint0_linear_1696_1403)"/>
</mask>
<g mask="url(#mask0_1696_1403)">
<path d="M980.501 561.186C980.501 638.668 917.59 701.488 840.001 701.488V841.79C995.179 841.79 1121 716.147 1121 561.186C1121 406.225 995.179 280.582 840.001 280.582C788.847 280.582 740.805 294.225 699.501 318.148C615.491 366.629 559 457.307 559 561.186V1262.7L699.501 1403V561.186C699.501 483.707 762.412 420.883 840.001 420.883C917.59 420.883 980.501 483.707 980.501 561.186Z" fill="white"/>
<path d="M840 0C737.628 0 641.674 27.3497 559 75.1323C506.066 105.655 458.661 144.554 418.5 190.052C331.061 288.98 278 418.938 278 561.21V982.114L418.5 1122.42V561.21C418.5 436.579 472.768 324.578 559 247.48C599.543 211.31 647.137 182.754 699.5 164.352C743.412 148.742 790.752 140.302 840 140.302C1072.77 140.302 1261.5 328.766 1261.5 561.21C1261.5 793.65 1072.77 982.114 840 982.114V1122.42C1150.42 1122.42 1402 871.129 1402 561.21C1402 251.287 1150.42 0 840 0Z" fill="white"/>
</g>
<defs>
<linearGradient id="paint0_linear_1696_1403" x1="1215" y1="1059" x2="52.5" y2="229.5" gradientUnits="userSpaceOnUse">
<stop stop-color="white"/>
<stop offset="1" stop-color="white" stop-opacity="0"/>
</linearGradient>
</defs>
</svg>
