<svg width="167" height="167" viewBox="0 0 167 167" fill="none" xmlns="http://www.w3.org/2000/svg">
<path d="M83.4494 166.899C129.695 166.899 166.899 129.695 166.899 83.4494C166.899 37.2042 129.695 0 83.4494 0C37.2042 0 0 37.2042 0 83.4494C0 129.695 37.2042 166.899 83.4494 166.899Z" fill="#2775CA"/>
<path d="M166.399 83.4494C166.399 129.418 129.418 166.399 83.4494 166.399C37.4804 166.399 0.5 129.418 0.5 83.4494C0.5 37.4804 37.4804 0.5 83.4494 0.5C129.418 0.5 166.399 37.4804 166.399 83.4494Z" stroke="url(#paint0_linear_5611_8017)" stroke-opacity="0.3"/>
<path d="M106.397 96.6611C106.397 84.4916 99.0951 80.3192 84.4915 78.5809C74.0603 77.1898 71.9741 74.4084 71.9741 69.54C71.9741 64.6716 75.4514 61.543 82.4053 61.543C88.664 61.543 92.1413 63.6293 93.8796 68.8449C94.2275 69.888 95.2707 70.5831 96.3138 70.5831H101.877C103.268 70.5831 104.311 69.54 104.311 68.1497V67.8018C102.92 60.1519 96.6609 54.2412 88.664 53.5461V45.2011C88.664 43.81 87.6209 42.7669 85.8826 42.4189H80.667C79.2759 42.4189 78.2328 43.4621 77.8848 45.2011V53.1981C67.4537 54.5892 60.8478 61.543 60.8478 70.236C60.8478 81.7103 67.8016 86.2299 82.4053 87.969C92.1413 89.7072 95.2707 91.7935 95.2707 97.357C95.2707 102.921 90.4022 106.745 83.7964 106.745C74.7555 106.745 71.6261 102.92 70.583 97.7042C70.2359 96.3139 69.1927 95.6179 68.1496 95.6179H62.2381C60.8478 95.6179 59.8047 96.6611 59.8047 98.0522V98.4002C61.195 107.092 66.7585 113.351 78.2328 115.09V123.435C78.2328 124.825 79.2759 125.868 81.0142 126.216H86.2298C87.6209 126.216 88.664 125.173 89.012 123.435V115.09C99.4431 113.351 106.397 106.049 106.397 96.6611Z" fill="white"/>
<path d="M65.7191 133.17C38.5981 123.435 24.6896 93.1846 34.7736 66.4107C39.9892 51.8071 51.4635 40.6808 65.7191 35.4652C67.1102 34.77 67.8054 33.7269 67.8054 31.9878V27.1202C67.8054 25.7291 67.1102 24.686 65.7191 24.3389C65.3711 24.3389 64.676 24.3389 64.328 24.686C31.2963 35.1172 13.2153 70.236 23.6464 103.268C29.9052 122.739 44.8568 137.691 64.328 143.949C65.7191 144.645 67.1102 143.949 67.4574 142.558C67.8054 142.211 67.8054 141.863 67.8054 141.168V136.3C67.8054 135.256 66.7622 133.866 65.7191 133.17ZM102.576 24.686C101.185 23.9909 99.794 24.686 99.4469 26.0771C99.0989 26.4251 99.0989 26.7723 99.0989 27.4682V32.3358C99.0989 33.7269 100.142 35.1172 101.185 35.8132C128.306 45.5484 142.215 75.7988 132.131 102.573C126.915 117.176 115.441 128.303 101.185 133.518C99.794 134.213 99.0989 135.256 99.0989 136.996V141.863C99.0989 143.254 99.794 144.297 101.185 144.645C101.533 144.645 102.228 144.645 102.576 144.297C135.608 133.866 153.689 98.7474 143.258 65.7156C136.999 45.8963 121.699 30.9447 102.576 24.686Z" fill="white"/>
<defs>
<linearGradient id="paint0_linear_5611_8017" x1="13.9946" y1="-22.2878" x2="149.276" y2="186.077" gradientUnits="userSpaceOnUse">
<stop stop-color="white"/>
<stop offset="1" stop-color="white" stop-opacity="0.08"/>
</linearGradient>
</defs>
</svg>
