<svg width="168" height="168" viewBox="0 0 168 168" fill="none" xmlns="http://www.w3.org/2000/svg">
<path d="M83.6945 167.389C130.076 167.389 167.389 130.076 167.389 83.6945C167.389 37.3135 130.076 0 83.6945 0C37.3135 0 0 37.3135 0 83.6945C0 130.076 37.3135 167.389 83.6945 167.389Z" fill="#F7931A"/>
<path d="M166.889 83.6945C166.889 129.799 129.799 166.889 83.6945 166.889C37.5897 166.889 0.5 129.799 0.5 83.6945C0.5 37.5897 37.5897 0.5 83.6945 0.5C129.799 0.5 166.889 37.5897 166.889 83.6945Z" stroke="url(#paint0_linear_5611_8025)" stroke-opacity="0.3"/>
<path d="M118.045 72.697C119.676 61.7251 111.377 55.8256 100.038 51.8891L103.718 37.0226L94.7379 34.7717L91.1523 49.2456C88.7931 48.6489 86.3715 48.094 83.9551 47.5391L87.5667 32.971L78.587 30.7148L74.9078 45.5761C72.9539 45.1259 71.0312 44.6862 69.1708 44.2151L69.1812 44.168L56.7926 41.0533L54.4021 50.7166C54.4021 50.7166 61.0693 52.2555 60.929 52.3498C64.5666 53.2658 65.2214 55.6895 65.1123 57.6159L60.9238 74.55C61.1733 74.6129 61.4955 74.7071 61.8592 74.8484L60.9083 74.6129L55.0361 98.3364C54.5892 99.4462 53.4616 101.116 50.9152 100.483C51.0088 100.614 44.3884 98.8442 44.3884 98.8442L39.9297 109.198L51.622 112.135C53.7941 112.685 55.9247 113.26 58.019 113.8L54.3034 128.834L63.2779 131.085L66.9571 116.218C69.4098 116.883 71.7899 117.501 74.1179 118.087L70.4492 132.891L79.4288 135.141L83.1444 120.139C98.4639 123.06 109.979 121.882 114.828 107.926C118.736 96.6927 114.636 90.207 106.576 85.9826C112.448 84.6216 116.865 80.7322 118.045 72.697ZM97.5181 101.687C94.7483 112.925 75.9627 106.848 69.8723 105.325L74.8091 85.4068C80.8995 86.9405 100.423 89.9714 97.5181 101.687ZM100.298 72.5347C97.7676 82.758 82.1363 77.56 77.0696 76.288L81.5387 58.2283C86.6053 59.5003 102.938 61.8717 100.298 72.5347Z" fill="white"/>
<defs>
<linearGradient id="paint0_linear_5611_8025" x1="14.0358" y1="-22.3532" x2="149.715" y2="186.623" gradientUnits="userSpaceOnUse">
<stop stop-color="white"/>
<stop offset="1" stop-color="white" stop-opacity="0.08"/>
</linearGradient>
</defs>
</svg>
